# xmcd
#
# Track frame offsets:
#  150
#  15634
#  31825
#  41888
#  56976
#  74292
#  90760
#  103341
#  118635
#  142140
#  159256
#
# Disc length: 2315 seconds
#
# Revision: 0
# Processed by: cddbd v1.5.1PL2 Copyright (c) Steve Scherf et al.
# Submitted via: Collectorz.com_Music_Collector 6.9
#
DISCID=9309090b
DTITLE=Trisha Yearwood - Jasper County
DYEAR=2005
DGENRE=Country
TTITLE0=Who Invented The Wheel
TTITLE1=Gimme The Good Stuff
TTITLE2=It's Alright
TTITLE3=Pistol
TTITLE4=3 - Trying To Love You
TTITLE5=River Of You
TTITLE6=Baby Don't You Let Go
TTITLE7=Standing Out In A Crowd
TTITLE8=Georgia Rain
TTITLE9=Sweet Love
TTITLE10=Try Me
EXTD=
EXTT0=
EXTT1=
EXTT2=
EXTT3=
EXTT4=
EXTT5=
EXTT6=
EXTT7=
EXTT8=
EXTT9=
EXTT10=
PLAYORDER=
